<svg
  width="152"
  height="33"
  viewBox="0 0 152 33"
  fill="none"
  xmlns="http://www.w3.org/2000/svg"
>
  <path
    d="M14.538 0C15.0903 0 15.538 0.447715 15.538 1V3.658C15.538 4.21029 15.0903 4.658 14.538 4.658H6.814C6.26172 4.658 5.814 5.10572 5.814 5.658V8.69C5.814 9.24228 6.26172 9.69 6.814 9.69H12.09C12.6423 9.69 13.09 10.1377 13.09 10.69V13.212C13.09 13.7643 12.6423 14.212 12.09 14.212H6.814C6.26172 14.212 5.814 14.6597 5.814 15.212V22.868C5.814 23.4203 5.36628 23.868 4.814 23.868H1C0.447716 23.868 0 23.4203 0 22.868V1C0 0.447716 0.447715 0 1 0H14.538Z"
    fill="#344054"
  />
  <path
    d="M27.2297 24.14C25.3711 24.14 23.6938 23.7433 22.1978 22.95C20.7244 22.1567 19.5571 21.0233 18.6957 19.55C17.8571 18.0767 17.4377 16.354 17.4377 14.382C17.4377 12.4327 17.8684 10.7213 18.7297 9.248C19.5911 7.752 20.7698 6.60733 22.2658 5.814C23.7618 5.02067 25.4391 4.624 27.2978 4.624C29.1564 4.624 30.8337 5.02067 32.3298 5.814C33.8257 6.60733 35.0044 7.752 35.8658 9.248C36.7271 10.7213 37.1578 12.4327 37.1578 14.382C37.1578 16.3313 36.7158 18.054 35.8317 19.55C34.9704 21.0233 33.7804 22.1567 32.2617 22.95C30.7657 23.7433 29.0884 24.14 27.2297 24.14ZM27.2297 19.108C28.3404 19.108 29.2811 18.7 30.0518 17.884C30.8451 17.068 31.2418 15.9007 31.2418 14.382C31.2418 12.8633 30.8564 11.696 30.0858 10.88C29.3378 10.064 28.4084 9.656 27.2978 9.656C26.1644 9.656 25.2237 10.064 24.4757 10.88C23.7277 11.6733 23.3538 12.8407 23.3538 14.382C23.3538 15.9007 23.7164 17.068 24.4417 17.884C25.1898 18.7 26.1191 19.108 27.2297 19.108Z"
    fill="#249E64"
  />
  <path
    d="M48.8782 24.14C47.0195 24.14 45.3422 23.7433 43.8462 22.95C42.3729 22.1567 41.2055 21.0233 40.3442 19.55C39.5055 18.0767 39.0862 16.354 39.0862 14.382C39.0862 12.4327 39.5169 10.7213 40.3782 9.248C41.2395 7.752 42.4182 6.60733 43.9142 5.814C45.4102 5.02067 47.0875 4.624 48.9462 4.624C50.8049 4.624 52.4822 5.02067 53.9782 5.814C55.4742 6.60733 56.6529 7.752 57.5142 9.248C58.3755 10.7213 58.8062 12.4327 58.8062 14.382C58.8062 16.3313 58.3642 18.054 57.4802 19.55C56.6189 21.0233 55.4289 22.1567 53.9102 22.95C52.4142 23.7433 50.7369 24.14 48.8782 24.14ZM48.8782 19.108C49.9889 19.108 50.9295 18.7 51.7002 17.884C52.4935 17.068 52.8902 15.9007 52.8902 14.382C52.8902 12.8633 52.5049 11.696 51.7342 10.88C50.9862 10.064 50.0569 9.656 48.9462 9.656C47.8129 9.656 46.8722 10.064 46.1242 10.88C45.3762 11.6733 45.0022 12.8407 45.0022 14.382C45.0022 15.9007 45.3649 17.068 46.0902 17.884C46.8382 18.7 47.7675 19.108 48.8782 19.108Z"
    fill="#249E64"
  />
  <path
    d="M60.7346 14.382C60.7346 12.41 61.1313 10.6873 61.9246 9.214C62.7406 7.74067 63.8626 6.60733 65.2906 5.814C66.7413 5.02067 68.396 4.624 70.2546 4.624C72.6346 4.624 74.618 5.24733 76.2046 6.494C77.5181 7.51147 78.4616 8.86866 79.0353 10.5656C79.2399 11.1708 78.7616 11.764 78.1227 11.764H73.8819C73.46 11.764 73.0958 11.4918 72.8908 11.1231C72.3218 10.0997 71.4091 9.588 70.1526 9.588C69.0873 9.588 68.2373 10.0073 67.6026 10.846C66.968 11.662 66.6506 12.8407 66.6506 14.382C66.6506 15.9233 66.968 17.1133 67.6026 17.952C68.2373 18.768 69.0873 19.176 70.1526 19.176C71.4091 19.176 72.3218 18.6643 72.8908 17.6409C73.0958 17.2722 73.46 17 73.8819 17H78.1172C78.7579 17 79.2364 17.5962 79.0268 18.2016C78.4523 19.8603 77.5116 21.2051 76.2046 22.236C74.5953 23.5053 72.612 24.14 70.2546 24.14C68.396 24.14 66.7413 23.7433 65.2906 22.95C63.8626 22.1567 62.7406 21.0233 61.9246 19.55C61.1313 18.0767 60.7346 16.354 60.7346 14.382Z"
    fill="#344054"
  />
  <path
    d="M85.3836 4.896C86.9891 4.896 88.2906 6.19751 88.2906 7.803V20.961C88.2906 22.5665 86.9891 23.868 85.3836 23.868C83.7781 23.868 82.4766 22.5665 82.4766 20.961V7.803C82.4766 6.19751 83.7781 4.896 85.3836 4.896Z"
    fill="#344054"
  />
  <path
    d="M98.3179 5.50466C98.3179 6.11254 99.2353 6.43153 99.7152 6.05854C100.006 5.83243 100.322 5.62625 100.664 5.44C101.661 4.896 102.829 4.624 104.166 4.624C105.73 4.624 107.147 5.02067 108.416 5.814C109.685 6.60733 110.683 7.74067 111.408 9.214C112.156 10.6873 112.53 12.3987 112.53 14.348C112.53 16.2973 112.156 18.02 111.408 19.516C110.683 20.9893 109.685 22.134 108.416 22.95C107.147 23.7433 105.73 24.14 104.166 24.14C102.851 24.14 101.684 23.868 100.664 23.324C99.8325 22.8705 98.3179 23.4553 98.3179 24.4023V31.912C98.3179 32.4643 97.8702 32.912 97.3179 32.912H93.5039C92.9516 32.912 92.5039 32.4643 92.5039 31.912V5.896C92.5039 5.34372 92.9516 4.896 93.5039 4.896H97.7093C98.0454 4.896 98.3179 5.1685 98.3179 5.50466ZM106.614 14.348C106.614 12.8973 106.206 11.764 105.39 10.948C104.597 10.1093 103.611 9.69 102.432 9.69C101.276 9.69 100.29 10.1093 99.4739 10.948C98.6806 11.7867 98.2839 12.9313 98.2839 14.382C98.2839 15.8327 98.6806 16.9773 99.4739 17.816C100.29 18.6547 101.276 19.074 102.432 19.074C103.588 19.074 104.574 18.6547 105.39 17.816C106.206 16.9547 106.614 15.7987 106.614 14.348Z"
    fill="#344054"
  />
  <path
    d="M133.464 14.076C133.464 14.3414 133.456 14.6121 133.44 14.8882C133.41 15.3953 132.979 15.776 132.471 15.776H121.284C120.701 15.776 120.228 16.2778 120.382 16.8395C120.568 17.5156 120.882 18.0677 121.326 18.496C122.006 19.108 122.833 19.414 123.808 19.414C125.02 19.414 125.923 18.9869 126.518 18.1328C126.741 17.8131 127.083 17.578 127.473 17.578H131.736C132.388 17.578 132.867 18.1956 132.612 18.7962C132.285 19.5669 131.844 20.2828 131.288 20.944C130.472 21.9413 129.441 22.7233 128.194 23.29C126.947 23.8567 125.553 24.14 124.012 24.14C122.153 24.14 120.499 23.7433 119.048 22.95C117.597 22.1567 116.464 21.0233 115.648 19.55C114.832 18.0767 114.424 16.354 114.424 14.382C114.424 12.41 114.821 10.6873 115.614 9.214C116.43 7.74067 117.563 6.60733 119.014 5.814C120.465 5.02067 122.131 4.624 124.012 4.624C125.848 4.624 127.48 5.00933 128.908 5.78C130.336 6.55067 131.447 7.65 132.24 9.078C133.056 10.506 133.464 12.172 133.464 14.076ZM126.514 12.546C127.066 12.546 127.536 12.0888 127.385 11.5576C127.229 11.0092 126.932 10.5453 126.494 10.166C125.814 9.57667 124.964 9.282 123.944 9.282C122.969 9.282 122.142 9.56533 121.462 10.132C121.063 10.4756 120.757 10.9067 120.541 11.4254C120.307 11.9908 120.79 12.546 121.402 12.546H126.514Z"
    fill="#344054"
  />
  <path
    d="M144.249 24.14C142.595 24.14 141.121 23.8567 139.829 23.29C138.537 22.7233 137.517 21.9527 136.769 20.978C136.244 20.2774 135.881 19.5208 135.679 18.7083C135.54 18.144 136.007 17.646 136.588 17.646H140.355C140.868 17.646 141.271 18.0539 141.518 18.5031C141.672 18.784 141.891 19.031 142.175 19.244C142.719 19.652 143.388 19.856 144.181 19.856C144.907 19.856 145.462 19.72 145.847 19.448C146.255 19.1533 146.459 18.7793 146.459 18.326C146.459 17.782 146.176 17.3853 145.609 17.136C145.043 16.864 144.125 16.5693 142.855 16.252C141.495 15.9347 140.362 15.606 139.455 15.266C138.549 14.9033 137.767 14.348 137.109 13.6C136.452 12.8293 136.123 11.798 136.123 10.506C136.123 9.418 136.418 8.432 137.007 7.548C137.619 6.64133 138.503 5.92733 139.659 5.406C140.838 4.88467 142.232 4.624 143.841 4.624C146.221 4.624 148.091 5.21333 149.451 6.392C150.565 7.34141 151.296 8.54082 151.645 9.99025C151.784 10.5672 151.315 11.084 150.721 11.084H147.331C146.831 11.084 146.434 10.698 146.201 10.2562C146.051 9.9718 145.842 9.72639 145.575 9.52C145.099 9.13467 144.465 8.942 143.671 8.942C142.991 8.942 142.47 9.078 142.107 9.35C141.745 9.59933 141.563 9.95067 141.563 10.404C141.563 10.948 141.847 11.356 142.413 11.628C143.003 11.9 143.909 12.172 145.133 12.444C146.539 12.8067 147.683 13.1693 148.567 13.532C149.451 13.872 150.222 14.4387 150.879 15.232C151.559 16.0027 151.911 17.0453 151.933 18.36C151.933 19.4707 151.616 20.468 150.981 21.352C150.369 22.2133 149.474 22.8933 148.295 23.392C147.139 23.8907 145.791 24.14 144.249 24.14Z"
    fill="#344054"
  />
</svg>
